<svg
  viewBox="0 0 173.67 215.93"
  xmlns="http://www.w3.org/2000/svg"
>
  <title>company logo</title>
  <g id="background" transform="scale(.17367 .21593)">
    <rect width="1e3" height="1e3" fill="none"></rect>
  </g>
  <g id="objects" transform="translate(-730 -700)">
    <path
      d="m825.22 742.21v17.45c-5.28-1.52-11.07-2.54-17.22-2.99-1.02-0.08-2.04-0.14-3.08-0.18-0.16-0.01-0.32-0.02-0.48-0.02-0.8-0.05-1.62-0.07-2.44-0.09-0.58-0.01-1.16-0.02-1.75-0.02-1.55 0-3.11 0.04-4.68 0.12-0.06 0-0.13 0-0.19 0.01-6.74 0.34-13.64 1.4-20.58 3.15-6.98 1.76-13.72 4.18-19.88 7.12v80.99c3.69-1.26 7.48-2.37 11.36-3.35 11.4-2.87 22.83-4.33 33.97-4.33 0.58 0 1.17 0 1.75 0.01v17.44c-0.58-0.02-1.16-0.02-1.75-0.02-1.77 0-3.55 0.04-5.36 0.13-0.09 0-0.18 0.01-0.27 0.01-7.75 0.4-15.86 1.6-24.08 3.67-12.4 3.12-23.63 7.88-33.06 13.66v-118.57c9.43-5.78 20.66-10.54 33.06-13.66 10.24-2.59 20.3-3.81 29.71-3.81 0.59 0 1.17 0 1.75 0.01 2.03 0.04 4.03 0.13 6 0.28 6.15 0.45 11.94 1.47 17.22 2.99z"
    ></path>
    <path
      d="m895.5 861.37v-116.58c-9.43 5.78-20.65 10.54-33.05 13.67-10.24 2.58-20.3 3.8-29.71 3.8-2.56 0-5.07-0.09-7.52-0.27-3-0.22-5.91-0.57-8.72-1.04-2.95-0.5-5.8-1.14-8.5-1.91-0.07-0.02-0.15-0.04-0.22-0.06h-0.01v116.57c0.08 0.02 0.15 0.04 0.23 0.06 7.38 2.11 15.76 3.22 24.74 3.22 9.4 0 19.47-1.22 29.71-3.8 12.4-3.13 23.62-7.89 33.05-13.66zm-62.76 0.03c-2.59 0-5.11-0.11-7.54-0.32v-0.3s0.01 0.01 0.02 0.01v-83.33c2.47 0.16 4.97 0.23 7.52 0.23 11.13 0 22.56-1.45 33.97-4.33 3.87-0.98 7.66-2.1 11.36-3.35v81c-6.17 2.94-12.91 5.35-19.89 7.11-8.62 2.18-17.18 3.28-25.44 3.28z"
    ></path>
  </g>
  <style>
        path { fill: #000; }
        @media (prefers-color-scheme: dark) {
            path { fill: #FFF; }
        }
    </style>
</svg>

