<?xml version="1.0" encoding="UTF-8"?>
<svg id="Ebene_1" data-name="Ebene 1" xmlns="http://www.w3.org/2000/svg" viewBox="0 0 1200 450">
  <defs>
    <style>
      .cls-1 {
        fill: #03c03c;
      }

      .cls-2 {
        fill: #fff;
      }

      .cls-3 {
        fill: #e4e4e4;
      }

      .cls-4, .cls-5, .cls-6 {
        fill: #c2d0d6;
      }

      .cls-7 {
        fill: #171c1f;
      }

      .cls-8 {
        fill: #3f3d56;
      }

      .cls-9 {
        fill: #0b7589;
      }

      .cls-10 {
        fill: none;
        stroke: #171c1f;
        stroke-linecap: round;
        stroke-miterlimit: 10;
        stroke-width: 2px;
      }

      .cls-5 {
        opacity: .05;
      }

      .cls-5, .cls-6, .cls-11 {
        isolation: isolate;
      }

      .cls-6 {
        opacity: .1;
      }

      .cls-11 {
        opacity: .3;
      }
    </style>
  </defs>
  <rect class="cls-2" x="-.66" y="-.13" width="1201.33" height="451.62"/>
  <g>
    <g>
      <path class="cls-6" d="m823.78,356.6c-2.74,5.32-6.6,9.98-11.31,13.66-.67.54-1.35,1.06-2.05,1.57-.94.66-1.89,1.31-2.88,1.95-7.63,4.88-16.58,8.22-25.31,10.67-2.38.67-4.77,1.29-7.17,1.88-2.02.5-4.05.96-6.07,1.39-.77.17-1.54.33-2.31.5s-1.65.34-2.47.5l-1.17.23c-22.61,4.25-45.52,5.12-68.61,4.14l-1.1-.05-1.75-.08c-4.69-.23-9.38-.52-14.08-.89l-1.78-.14-.79-.06c-2.63-.21-5.27-.45-7.9-.7-3.47-.32-6.95-.67-10.43-1.06l-.45-.05-.37-.04h0c-12.42-1.36-24.87-2.99-37.34-4.68l-1.76-.24-3.17-.43-2.67-.36h0l-.79-.11c-4.21-.58-8.42-1.14-12.62-1.71l-.68-.09c-7.9-1.06-15.85-2.07-23.77-2.99l-1.03-.12h0c-3.24-.37-6.48-.73-9.72-1.07l-2.47-.25-3.28-.32c-9.1-.87-18.2-1.56-27.27-1.98-4.37-.2-8.74-.35-13.12-.45-3.62-.07-7.24-.11-10.86-.11-4.91,0-9.83.04-14.76.13h-1.12c-6.95.14-13.91.36-20.87.62l-1.25.04h-.41c-14.81.57-29.62,1.32-44.39,1.86l-3.61.13h-.52c-5.13.18-10.26.33-15.39.43h-1.36s-.04,0-.04,0h-1.65s-2.29.04-2.29.04c-2.38.03-4.75.05-7.12.06h-2.91c-8.7.01-17.36-.15-25.98-.57l-.96-.05c-16.73-.85-33.28-2.66-49.54-6-1.68-.35-3.36-.71-5.04-1.09-11.24-2.48-22.27-5.8-33.01-9.92-5.06-1.96-10.15-4.22-14.01-8.07-9.79-9.84-6.19-29.19,6.49-34.86,9.91-4.43,21.56-.89,32.23-2.91.66-.13,1.3-.29,1.94-.5,1.36-.44,2.68-.99,3.94-1.64.43-.22.87-.45,1.31-.7.99-.54,1.97-1.14,2.92-1.8,1.55-1.04,3.03-2.17,4.43-3.39.62-.54,1.23-1.09,1.82-1.66,2.04-1.93,3.85-4.11,5.37-6.47.55-.89,1.05-1.83,1.47-2.79.23-.49.44-1.03.61-1.54.26-.74.45-1.51.58-2.28.61-3.67-.41-7.24-3.92-10.25-.31-.27-.65-.51-.99-.74-.68-.47-1.4-.88-2.15-1.23-.3-.14-.61-.28-.93-.41-4.52-1.89-10.34-2.6-15.25-3.9h0c-1.5-.37-2.96-.88-4.37-1.5-.89-.41-1.79-.84-2.66-1.29h0l-.23-.13h0c-7.47-3.82-14.05-9.19-19.31-15.74-1.31-1.66-2.51-3.39-3.6-5.19-.33-.54-.66-1.1-.96-1.66-8.73-15.62-9.68-35.67-.71-51.09,1.09-1.87,2.3-3.67,3.64-5.37.43-.56.88-1.12,1.34-1.66,8.56-10.16,20.88-17.07,33.32-22.2,16.7-6.88,34.2-11.24,52.04-14.14,3.62-.59,7.24-1.12,10.86-1.59,15.15-1.98,30.48-3.06,45.7-3.89,14.24-.77,28.54-1.28,42.91-1.54,4.87-.08,9.74-.13,14.62-.13,10.99-.04,21.98.14,32.97.53,3.62.13,7.24.28,10.86.46,9.29.45,18.56,1.08,27.81,1.88,4.44.39,8.88.82,13.3,1.28,33.7,3.57,66.92,9.71,99.01,19.32,3.64,1.09,7.26,2.23,10.87,3.42,13.49,4.39,26.76,9.47,39.74,15.21,1.23.55,2.45,1.09,3.67,1.65,8.11,3.69,16.1,7.66,23.97,11.92,10.4,5.55,20.41,11.79,29.98,18.66,3.73,2.72,7.36,5.56,10.89,8.52,6.23,5.22,12.05,10.92,17.39,17.05.48.55.95,1.1,1.41,1.65,2.42,2.89,4.72,5.87,6.89,8.97,10.61,15.15,17.76,32.5,23.05,50.22,4.67,15.47,7.79,32.84.52,47.3Z"/>
      <path class="cls-6" d="m816.97,303.66l-42.18.14-.17-53.65,18.76-.06c-.47-.55-.94-1.11-1.41-1.65l-17.33.06-.06-17.1c-3.52-2.95-7.15-5.79-10.89-8.52l.08,25.67-97.23.32-.18-56.44,43.35-.14c-1.22-.55-2.45-1.1-3.67-1.65l-39.69.13-.05-15.34c-3.62-1.18-7.25-2.32-10.87-3.42l.06,18.76-138.77.45-.33-.31,40.02-38.23c-4.43-.47-8.86-.9-13.3-1.28l-27.71,26.47-.09-28.34c-3.62-.18-7.24-.33-10.86-.46l.1,30.65-33.07-31.18c-4.87.02-9.75.06-14.62.13l44.85,42.29-.33.32-133.02.43-.12-37.56c-3.62.47-7.24,1-10.86,1.59l.12,36.04-85.49.28c-.46.54-.91,1.1-1.34,1.66l86.83-.28.18,56.42-89.96.29c.31.56.63,1.11.96,1.66l89-.29.17,53.65-43.78.14c-.59.57-1.2,1.13-1.82,1.66l45.6-.15.18,54.9c3.62.5,7.24,1.03,10.87,1.58l-.18-56.52,136.23-.44.22,68.79c3.62-.01,7.24.02,10.86.11l-.22-68.93,140.06-.46.27,84.21.45.05c3.48.38,6.95.73,10.43,1.06l-.28-85.35,97.2-.32.27,83.22c.83-.16,1.66-.32,2.47-.5s1.54-.32,2.31-.5c2.03-.44,4.05-.9,6.07-1.39l-.26-80.86,42.52-.14c-.11-.55-.22-1.11-.33-1.66Zm-312.04,1.02l-136.22.44-.17-53.65,136.22-.44.17,53.65Zm-.18-55.29l-136.22.44-.18-56.43,134.29-.44,1.92,1.5.19,54.92Zm151.1,54.8l-140.05.46-.17-53.65,140.05-.46.17,53.65Zm-.18-55.29l-140.05.46-.18-56.43,140.05-.46.18,56.43Zm108.26,54.94l-97.2.32-.17-53.65,97.2-.32.17,53.65Z"/>
      <path class="cls-4" d="m400.25,380.77c0,.05-.04.11-.05.16h0c0-.05.03-.11.06-.16h0Z"/>
      <polygon class="cls-4" points="419.38 380.7 419.44 380.86 419.07 380.87 419.02 380.7 419.38 380.7"/>
      <path class="cls-6" d="m400.25,380.77c0,.05-.04.11-.05.16h0c0-.05.03-.11.06-.16h0Z"/>
      <polygon class="cls-6" points="419.38 380.7 419.44 380.86 419.07 380.87 419.02 380.7 419.38 380.7"/>
      <path class="cls-4" d="m400.25,380.77c0,.05-.04.11-.05.16h0c0-.05.03-.11.06-.16h0Z"/>
      <polygon class="cls-4" points="419.38 380.7 419.44 380.86 419.07 380.87 419.02 380.7 419.38 380.7"/>
      <path class="cls-4" d="m384.3,380.82h.23s-.42.16-.42.16l.2-.16Z"/>
      <path class="cls-6" d="m384.3,380.82h.23s-.42.16-.42.16l.2-.16Z"/>
      <path class="cls-4" d="m384.3,380.82h.23s-.42.16-.42.16l.2-.16Z"/>
      <path class="cls-4" d="m400.25,380.77c0,.05-.04.11-.05.16h0c0-.05.03-.11.06-.16h0Z"/>
      <polygon class="cls-4" points="419.44 380.86 419.07 380.87 419.02 380.7 419.38 380.7 419.44 380.86"/>
      <polygon class="cls-6" points="419.38 380.7 419.44 380.86 419.07 380.87 419.02 380.7 419.38 380.7"/>
      <path class="cls-4" d="m695.87,403.88h-1.22s1.2,0,1.2,0h.01Z"/>
      <path class="cls-5" d="m695.87,403.88h-1.22s1.2,0,1.2,0h.01Z"/>
    </g>
    <g>
      <path class="cls-9" d="m541.43,340.42c4.52,2.92,9.75,4.56,15.14,4.75-.1.23-.2.45-.32.67-.63,1.16-1.51,2.15-2.59,2.91-3.84,2.7-9.14,1.78-11.84-2.06-1.01-1.43-1.55-3.14-1.55-4.89v-1.37h1.16Z"/>
      <path class="cls-9" d="m573.18,340.82v.97c0,4.69-3.8,8.5-8.49,8.5-3.11,0-5.98-1.7-7.46-4.43-.12-.22-.24-.45-.34-.68.25,0,.49.01.74.01,5.49,0,10.87-1.5,15.55-4.36Z"/>
      <path class="cls-9" d="m584.63,238.23c-.26-.04-.51-.06-.77-.08,2.94,6.77,3.14,14.42.57,21.35.26-.03.51-.07.77-.12,5.81-1.13,9.61-6.75,8.49-12.57-.87-4.5-4.51-7.95-9.05-8.58h0Z"/>
      <path class="cls-9" d="m531.39,238.15c-.26.02-.52.04-.77.08-5.87.81-9.96,6.23-9.15,12.1.63,4.54,4.08,8.18,8.58,9.05.26.05.51.09.77.12-2.57-6.92-2.37-14.57.57-21.35h0Z"/>
      <path class="cls-8" d="m584.63,238.23c-6.24-14.91-23.39-21.94-38.31-15.7-14.91,6.24-21.94,23.39-15.7,38.31,6.24,14.91,23.39,21.94,38.31,15.7,10.89-4.56,17.97-15.2,17.97-27,0-3.88-.77-7.72-2.27-11.3Zm-.2,21.27c-5.5,14.8-21.96,22.33-36.76,16.83-14.8-5.5-22.33-21.96-16.83-36.76,5.5-14.8,21.96-22.33,36.76-16.83,11.19,4.16,18.62,14.85,18.62,26.79,0,3.4-.61,6.78-1.79,9.97h0Z"/>
      <path class="cls-9" d="m572.6,242.89h-29.95c-3.29,0-5.96,2.67-5.96,5.96s2.67,5.96,5.96,5.96h29.95c3.29,0,5.96-2.67,5.96-5.96s-2.67-5.96-5.96-5.96Z"/>
      <path class="cls-8" d="m557.62,284.59c-16.92,0-30.63,13.73-30.62,30.65,0,16.37,12.88,29.84,29.24,30.59.32.02.65.03.98.03.14,0,.27,0,.41,0,16.92,0,30.64-13.72,30.64-30.64s-13.72-30.64-30.64-30.64h0Zm15.55,56.23c-4.68,2.86-10.07,4.37-15.55,4.36-.25,0-.49,0-.74-.01-.11,0-.21,0-.32-.01-16.54-.58-29.49-14.45-28.91-30.99s14.45-29.49,30.99-28.91,29.49,14.45,28.91,30.99c-.35,10.09-5.76,19.32-14.38,24.57h0Z"/>
      <path class="cls-9" d="m579.12,307.68h-13.39c-1.94,0-3.52-1.58-3.51-3.52,0-1.94,1.57-3.51,3.51-3.51h13.39c1.94,0,3.52,1.58,3.51,3.52,0,1.94-1.57,3.51-3.51,3.51Z"/>
      <circle class="cls-4" cx="566.63" cy="304.16" r="1.79"/>
      <circle class="cls-4" cx="572.43" cy="304.16" r="1.79"/>
      <circle class="cls-1" cx="578.23" cy="304.16" r="1.79"/>
    </g>
    <g>
      <g>
        <path class="cls-4" d="m283.4,151.55h-48.71c-2.72,0-4.92-2.21-4.92-4.92v-64.5c0-2.72,2.21-4.92,4.92-4.92h48.71c2.72,0,4.92,2.21,4.92,4.92v64.5c0,2.72-2.21,4.92-4.92,4.92Z"/>
        <path class="cls-2" d="m264.04,147.69h-25.94c-2.55,0-4.61-2.07-4.61-4.61v-57.4c0-2.55,2.07-4.61,4.61-4.61h41.87c2.55,0,4.61,2.07,4.61,4.61v41.47c-.01,11.34-9.2,20.53-20.54,20.54Z"/>
        <path class="cls-3" d="m275.8,109.85h-33.51c-.6,0-1.09-.49-1.09-1.09s.49-1.09,1.09-1.09h33.51c.6,0,1.09.49,1.09,1.09s-.49,1.09-1.09,1.09Z"/>
        <path class="cls-3" d="m275.8,114.17h-33.51c-.6,0-1.09-.49-1.09-1.1,0-.6.49-1.09,1.09-1.09h33.51c.6,0,1.09.49,1.09,1.09s-.49,1.09-1.09,1.09h0Z"/>
        <path class="cls-3" d="m256.81,118.49h-14.53c-.6,0-1.09-.49-1.09-1.09s.49-1.09,1.09-1.09h14.53c.6,0,1.09.49,1.09,1.09,0,.6-.49,1.09-1.09,1.09h0Z"/>
        <path class="cls-3" d="m275.8,92.21h-33.51c-.6,0-1.09-.49-1.09-1.09,0-.6.49-1.09,1.09-1.09h33.52c.6,0,1.09.49,1.09,1.09,0,.6-.49,1.09-1.09,1.09h0Z"/>
        <path class="cls-3" d="m275.8,96.53h-33.51c-.6,0-1.09-.49-1.09-1.09,0-.6.49-1.09,1.09-1.09h33.51c.6,0,1.09.49,1.09,1.09s-.49,1.09-1.09,1.09h0Z"/>
        <path class="cls-3" d="m256.81,100.85h-14.53c-.6,0-1.09-.49-1.09-1.1,0-.6.49-1.09,1.09-1.09h14.53c.6,0,1.09.49,1.09,1.1,0,.6-.49,1.09-1.09,1.09Z"/>
        <path class="cls-1" d="m275.8,128.11h-33.51c-.6,0-1.09-.49-1.09-1.09s.49-1.09,1.09-1.09h33.51c.6,0,1.09.49,1.09,1.09s-.49,1.09-1.09,1.09Z"/>
        <path class="cls-1" d="m247.53,132.43h-5.24c-.6,0-1.09-.49-1.09-1.09s.49-1.09,1.09-1.09h5.24c.6,0,1.09.49,1.09,1.09s-.49,1.09-1.09,1.09h0Z"/>
        <path class="cls-1" d="m256.81,136.74h-14.53c-.6,0-1.09-.49-1.09-1.09,0-.6.49-1.09,1.09-1.09h14.53c.6,0,1.09.49,1.09,1.09,0,.6-.49,1.09-1.09,1.09Z"/>
      </g>
      <g>
        <path class="cls-4" d="m312.83,173.87h-53.03c-2.96,0-5.36-2.4-5.36-5.36v-70.22c0-2.96,2.4-5.36,5.36-5.36h53.03c2.96,0,5.36,2.4,5.36,5.36v70.22c0,2.96-2.4,5.36-5.36,5.36Z"/>
        <path class="cls-2" d="m293.17,169.64h-29.64c-2.76,0-5-2.24-5-5v-62.48c0-2.76,2.24-5,5-5h45.57c2.76,0,5,2.24,5,5v46.55c-.01,11.55-9.38,20.92-20.93,20.93Z"/>
        <path class="cls-3" d="m304.56,109.28h-36.48c-.66,0-1.19-.53-1.19-1.19s.53-1.19,1.19-1.19h36.48c.66,0,1.19.53,1.19,1.19s-.53,1.19-1.19,1.19h0Z"/>
        <path class="cls-3" d="m304.56,113.98h-36.48c-.66,0-1.19-.54-1.19-1.19,0-.65.53-1.18,1.19-1.19h36.48c.66,0,1.19.54,1.19,1.19,0,.65-.53,1.18-1.19,1.19Z"/>
        <path class="cls-3" d="m283.89,118.68h-15.81c-.66,0-1.19-.54-1.19-1.19,0-.65.53-1.18,1.19-1.19h15.81c.66,0,1.19.54,1.19,1.19,0,.65-.53,1.18-1.19,1.19Z"/>
        <path class="cls-1" d="m304.56,128.53h-36.48c-.66,0-1.19-.53-1.19-1.19s.53-1.19,1.19-1.19h36.48c.66,0,1.19.53,1.19,1.19s-.53,1.19-1.19,1.19h0Z"/>
        <path class="cls-1" d="m294.97,133.23h-26.9c-.66,0-1.19-.53-1.19-1.19,0-.66.53-1.19,1.19-1.19h26.9c.66,0,1.19.53,1.19,1.19,0,.66-.53,1.19-1.19,1.19Z"/>
        <path class="cls-1" d="m283.89,137.93h-15.81c-.66,0-1.19-.54-1.19-1.19,0-.65.53-1.18,1.19-1.19h15.81c.66,0,1.19.54,1.19,1.19,0,.65-.53,1.18-1.19,1.19Z"/>
        <path class="cls-3" d="m304.56,147.77h-36.48c-.66,0-1.19-.53-1.19-1.19s.53-1.19,1.19-1.19h36.48c.66,0,1.19.53,1.19,1.19s-.53,1.19-1.19,1.19h0Z"/>
        <path class="cls-3" d="m304.56,152.48h-36.48c-.66,0-1.19-.53-1.19-1.19,0-.66.53-1.19,1.19-1.19h36.48c.66,0,1.19.53,1.19,1.19,0,.66-.53,1.19-1.19,1.19Z"/>
        <path class="cls-3" d="m283.89,157.18h-15.81c-.66,0-1.19-.54-1.19-1.19,0-.65.53-1.18,1.19-1.19h15.81c.66,0,1.19.54,1.19,1.19,0,.65-.53,1.18-1.19,1.19Z"/>
      </g>
      <g>
        <path class="cls-4" d="m406.15,258.45h-104.71c-5.84,0-10.58-4.74-10.58-10.58V109.21c0-5.84,4.74-10.58,10.58-10.58h104.71c5.84,0,10.58,4.74,10.58,10.58v138.65c0,5.84-4.74,10.58-10.58,10.58Z"/>
        <path class="cls-2" d="m366.19,249.86h-57.39c-5.32,0-9.63-4.32-9.64-9.64v-123.38c0-5.32,4.32-9.63,9.64-9.64h89.99c5.32,0,9.63,4.32,9.64,9.64v90.78c-.03,23.32-18.92,42.22-42.24,42.24Z"/>
        <path class="cls-1" d="m389.81,130.89h-72.04c-1.3,0-2.35-1.05-2.35-2.35s1.05-2.35,2.35-2.35h72.04c1.3,0,2.35,1.05,2.35,2.35,0,1.3-1.05,2.35-2.35,2.35h0Z"/>
        <path class="cls-1" d="m389.81,140.18h-72.04c-1.3,0-2.35-1.05-2.35-2.35s1.05-2.35,2.35-2.35h72.04c1.3,0,2.35,1.05,2.35,2.35s-1.05,2.35-2.35,2.35Z"/>
        <path class="cls-1" d="m349,149.46h-31.23c-1.3,0-2.35-1.05-2.35-2.35s1.05-2.35,2.35-2.35h31.23c1.3,0,2.35,1.05,2.35,2.35s-1.05,2.35-2.35,2.35h0Z"/>
        <path class="cls-3" d="m389.81,168.9h-72.04c-1.3,0-2.35-1.05-2.35-2.35s1.05-2.35,2.35-2.35h72.04c1.3,0,2.35,1.05,2.35,2.35,0,1.3-1.05,2.35-2.35,2.35h0Z"/>
        <path class="cls-3" d="m389.81,178.19h-72.04c-1.3,0-2.35-1.05-2.35-2.35s1.05-2.35,2.35-2.35h72.04c1.3,0,2.35,1.05,2.35,2.35s-1.05,2.35-2.35,2.35Z"/>
        <path class="cls-3" d="m349,187.47h-31.23c-1.3,0-2.35-1.05-2.35-2.35s1.05-2.35,2.35-2.35h31.23c1.3,0,2.35,1.05,2.35,2.35s-1.05,2.35-2.35,2.35h0Z"/>
        <path class="cls-3" d="m389.81,206.91h-72.04c-1.3,0-2.35-1.05-2.35-2.35,0-1.3,1.05-2.35,2.35-2.35h72.04c1.3,0,2.35,1.05,2.35,2.35,0,1.3-1.05,2.35-2.35,2.35h0Z"/>
        <path class="cls-3" d="m389.81,216.2h-72.04c-1.3,0-2.35-1.05-2.35-2.35s1.05-2.35,2.35-2.35h72.04c1.3,0,2.35,1.05,2.35,2.35s-1.05,2.35-2.35,2.35Z"/>
        <path class="cls-3" d="m349,225.48h-31.23c-1.3,0-2.35-1.06-2.34-2.35,0-1.29,1.05-2.34,2.34-2.34h31.23c1.3,0,2.35,1.06,2.34,2.35,0,1.29-1.05,2.34-2.34,2.34Z"/>
      </g>
    </g>
    <g>
      <path class="cls-7" d="m503.81,195.54c-13.58-17.38-38.68-20.45-56.05-6.87-17.38,13.58-20.45,38.68-6.87,56.05,12.7,16.25,35.69,20.16,53.05,9l39.47,50.49c1.25,1.6,3.56,1.89,5.16.64,1.6-1.25,1.89-3.56.64-5.16h0s-39.47-50.5-39.47-50.5c15.01-14.15,16.78-37.4,4.08-53.65Zm-13.21,47.67c-13.02,10.17-31.82,7.87-41.99-5.15-10.17-13.02-7.87-31.82,5.15-41.99,13.02-10.17,31.82-7.87,41.99,5.15h0c10.17,13.02,7.87,31.82-5.15,41.99h0Z"/>
      <path class="cls-11" d="m448.61,238.06c-9.59-12.27-8.16-29.84,3.28-40.4-.68.45-1.34.92-1.99,1.43-13.02,10.17-15.32,28.98-5.15,41.99,10.17,13.02,28.98,15.32,41.99,5.15.65-.51,1.27-1.04,1.87-1.59-13.01,8.55-30.41,5.69-40-6.58Z"/>
    </g>
    <g>
      <path class="cls-4" d="m919.54,190.44h-236.22c-.25,0-.46-.21-.46-.46s.21-.46.46-.46h236.22c.25,0,.46.21.46.46s-.21.46-.46.46Z"/>
      <path class="cls-4" d="m919.54,208.83h-236.22c-.25,0-.46-.21-.46-.46s.21-.46.46-.46h236.22c.25,0,.46.21.46.46s-.21.46-.46.46Z"/>
      <path class="cls-4" d="m919.54,227.23h-236.22c-.25,0-.46-.21-.46-.46s.21-.46.46-.46h236.22c.25,0,.46.21.46.46s-.21.46-.46.46Z"/>
      <path class="cls-4" d="m919.54,245.62h-236.22c-.25,0-.46-.21-.46-.46s.21-.46.46-.46h236.22c.25,0,.46.21.46.46s-.21.46-.46.46Z"/>
      <path class="cls-4" d="m919.54,264.02h-236.22c-.25,0-.46-.21-.46-.46s.21-.46.46-.46h236.22c.25,0,.46.21.46.46s-.21.46-.46.46Z"/>
      <path class="cls-4" d="m739.26,264.73c-.25,0-.46-.2-.46-.46l-.46-74.5c0-.25.2-.46.46-.46h0c.25,0,.46.2.46.46l.46,74.5c0,.25-.2.46-.46.46h0Z"/>
      <path class="cls-4" d="m803.18,264.73c-.25,0-.46-.2-.46-.46l-.46-74.5c0-.25.2-.46.46-.46h0c.25,0,.46.2.46.46l.46,74.5c0,.25-.2.46-.46.46h0Z"/>
      <path class="cls-4" d="m867.11,264.73c-.25,0-.46-.2-.46-.46l-.46-74.5c0-.25.2-.46.46-.46h0c.25,0,.46.2.46.46l.46,74.5c0,.25-.2.46-.46.46h0Z"/>
      <path class="cls-4" d="m731.67,174.82h-43.69c-3.43,0-6.21-2.78-6.21-6.21s2.78-6.21,6.21-6.21h43.69c3.43,0,6.21,2.78,6.21,6.21s-2.78,6.21-6.21,6.21Z"/>
      <path class="cls-1" d="m718.59,204.49h-17.53c-2.78,0-5.04-2.25-5.04-5.03,0-2.78,2.25-5.04,5.03-5.04,0,0,0,0,.01,0h17.53c2.78,0,5.04,2.25,5.04,5.03,0,2.78-2.25,5.04-5.03,5.04,0,0,0,0-.01,0Z"/>
      <path class="cls-1" d="m616.29,319.16h-24.25c-3.85,0-6.97-3.11-6.98-6.96,0-3.85,3.11-6.97,6.96-6.98,0,0,.01,0,.02,0h24.25c3.85,0,6.97,3.11,6.98,6.96,0,3.85-3.11,6.97-6.96,6.98,0,0-.01,0-.02,0Z"/>
      <path class="cls-1" d="m779.75,222.42h-17.53c-2.78,0-5.04-2.25-5.04-5.03,0-2.78,2.25-5.04,5.03-5.04h17.53c2.78,0,5.04,2.25,5.04,5.03,0,2.78-2.25,5.04-5.03,5.04,0,0,0,0-.01,0Z"/>
      <path class="cls-1" d="m779.75,242.2h-17.53c-2.78,0-5.04-2.25-5.04-5.03,0-2.78,2.25-5.04,5.03-5.04,0,0,0,0,.01,0h17.53c2.78,0,5.04,2.25,5.04,5.03,0,2.78-2.25,5.04-5.03,5.04,0,0,0,0-.01,0Z"/>
      <path class="cls-1" d="m845.06,204.95h-17.53c-2.78,0-5.04-2.25-5.04-5.03,0-2.78,2.25-5.04,5.03-5.04h17.53c2.78,0,5.04,2.25,5.04,5.03,0,2.78-2.25,5.04-5.03,5.04,0,0,0,0-.01,0Z"/>
      <path class="cls-4" d="m793.68,175.05h-43.69c-3.43,0-6.21-2.78-6.21-6.21s2.78-6.21,6.21-6.21h43.69c3.43,0,6.21,2.78,6.21,6.21s-2.78,6.21-6.21,6.21Z"/>
      <path class="cls-4" d="m855.69,175.51h-43.69c-3.43,0-6.21-2.78-6.21-6.21s2.78-6.21,6.21-6.21h43.69c3.43,0,6.21,2.78,6.21,6.21s-2.78,6.21-6.21,6.21Z"/>
      <path class="cls-4" d="m917.7,175.51h-43.69c-3.43,0-6.21-2.78-6.21-6.21s2.78-6.21,6.21-6.21h43.69c3.43,0,6.21,2.78,6.21,6.21s-2.78,6.21-6.21,6.21Z"/>
      <path class="cls-2" d="m707.05,172.47l4.19-6.82-1.26-.16,2.55,6.41c.11.36.48.57.85.48.37-.1.58-.48.48-.85l-2.55-6.41c-.12-.37-.51-.58-.88-.46-.16.05-.3.15-.38.3l-4.19,6.82c-.47.76.73,1.45,1.19.7h0Z"/>
      <path class="cls-2" d="m708,170.17l3.65-.05c.38,0,.69-.31.69-.69s-.31-.69-.69-.69l-3.65.05c-.38,0-.69.31-.69.69s.31.69.69.69h0Z"/>
      <path class="cls-2" d="m774.22,168.69c-.09-.19-.22-.36-.37-.51.48-.6.52-1.44.1-2.08-.34-.51-.86-.87-1.45-1.02-.7-.14-1.42-.12-2.12.04-.05-.01-.09-.02-.14-.02-.38,0-.68.31-.69.69-.08,1.81-.16,3.63-.24,5.44-.03.04-.05.09-.07.13-.04.16-.02.33.05.47.03.36.33.63.69.64.17,0,.34-.07.46-.19,1.36.1,2.79-.12,3.6-1.36.45-.67.51-1.52.18-2.25Zm-1.49,1.7c-.56.48-1.3.68-2.02.56.07-1.51.14-3.02.2-4.53.62-.1,1.33-.16,1.76.26.07.07.13.15.17.23,0,.01.04.18.03.14,0,.1.01.05-.02.14-.06.19-.22.33-.41.38-.38,0-.68.31-.69.69,0,.38.31.69.69.69.29,0,.54.22.6.5.05.34-.07.69-.32.93h0Z"/>
      <path class="cls-2" d="m835.07,165.47c-2.06.38-3.58,2.15-3.63,4.25-.04,1.08.34,2.13,1.06,2.93.82.84,1.96.85,3.05.71.38-.01.68-.31.69-.69,0-.33-.32-.74-.69-.69-.71.1-1.57.25-2.11-.34-.46-.57-.69-1.3-.62-2.03.11-1.43,1.2-2.6,2.62-2.81.37-.1.58-.48.48-.85-.11-.36-.48-.57-.85-.48h0Z"/>
      <path class="cls-2" d="m893.7,166.12l.18,6.65c0,.39.33.69.71.69.05,0,.11,0,.16-.02,2.21-.46,3.62-2.62,3.16-4.83-.33-1.6-1.59-2.85-3.2-3.17-.37-.09-.74.12-.85.48-.1.37.12.74.48.85,1.48.24,2.48,1.63,2.24,3.11-.19,1.14-1.07,2.03-2.2,2.23l.87.67-.18-6.65c-.02-.89-1.4-.89-1.38,0Z"/>
    </g>
    <g>
      <g>
        <path class="cls-10" d="m601.17,276.4c20.64-3.34,41.01-8.4,60.82-15.09,15.6-5.27,30.86-11.54,45.65-18.78,5.57-2.73,11.08-5.59,16.51-8.59"/>
        <path class="cls-7" d="m716.69,248.88c-.48-.27-.66-.88-.39-1.36l7.43-13.38-15.26-1.07c-.55-.04-.97-.52-.93-1.07.04-.55.52-.97,1.07-.93l16.83,1.19c.34.02.65.22.81.52s.16.66,0,.96l-8.19,14.75c-.1.17-.24.31-.4.39-.29.16-.65.17-.96,0Z"/>
      </g>
      <path class="cls-10" d="m369.06,239.81c30.45,15.5,63.02,26.85,96.49,33.71,9.62,1.97,19.31,3.57,29.05,4.79"/>
    </g>
    <path class="cls-7" d="m968.29,219.51h-64.74c-1.08,0-1.95-.87-1.95-1.95v-21.84c0-1.08.87-1.95,1.95-1.95h64.74c1.08,0,1.95.87,1.95,1.95v21.84c0,1.08-.87,1.95-1.95,1.95Z"/>
    <rect class="cls-4" x="911.74" y="199.62" width="17.16" height="1.95"/>
    <circle class="cls-1" cx="951.52" cy="200.79" r="1.17"/>
    <circle class="cls-1" cx="955.42" cy="200.79" r="1.17"/>
    <circle class="cls-1" cx="959.32" cy="200.79" r="1.17"/>
    <path class="cls-7" d="m968.29,247.21h-64.74c-1.08,0-1.95-.87-1.95-1.95v-21.84c0-1.08.87-1.95,1.95-1.95h64.74c1.08,0,1.95.87,1.95,1.95v21.84c0,1.08-.87,1.95-1.95,1.95Z"/>
    <rect class="cls-4" x="911.74" y="227.31" width="17.16" height="1.95"/>
    <circle class="cls-1" cx="951.52" cy="228.48" r="1.17"/>
    <circle class="cls-1" cx="955.42" cy="228.48" r="1.17"/>
    <circle class="cls-1" cx="959.32" cy="228.48" r="1.17"/>
    <path class="cls-7" d="m968.29,274.9h-64.74c-1.08,0-1.95-.87-1.95-1.95v-21.84c0-1.08.87-1.95,1.95-1.95h64.74c1.08,0,1.95.87,1.95,1.95v21.84c0,1.08-.87,1.95-1.95,1.95Z"/>
    <rect class="cls-4" x="911.74" y="255.01" width="17.16" height="1.95"/>
    <circle class="cls-1" cx="951.52" cy="256.18" r="1.17"/>
    <circle class="cls-1" cx="955.42" cy="256.18" r="1.17"/>
    <circle class="cls-1" cx="959.32" cy="256.18" r="1.17"/>
  </g>
</svg>